HIERARCHY
ROOT Pelvis
{
	OFFSET 0.000000 0.000000 0.000000
	CHANNELS 6 Xposition Yposition Zposition Xrotation Yrotation Zrotation
	JOINT LeftUpLeg_virtual
	{
		OFFSET 0.000000 0.000000 0.000000
		CHANNELS 3 Xrotation Yrotation Zrotation
		JOINT LeftUpLeg
		{
			OFFSET 18.735201 -5.666702 -4.541200
			CHANNELS 3 Xrotation Yrotation Zrotation
			JOINT LeftLeg
			{
				OFFSET -0.021200 -31.938179 0.493100
				CHANNELS 3 Xrotation Yrotation Zrotation
				JOINT LeftFoot
				{
					OFFSET 0.021200 -31.938179 -4.336299
					CHANNELS 3 Xrotation Yrotation Zrotation
					JOINT LeftToeBase
					{
						OFFSET 0.943001 -26.722000 15.023500
						CHANNELS 3 Xrotation Yrotation Zrotation
						End Site
						{
							OFFSET 0 0 0
						}
					}
				}
			}
		}
	}
	JOINT RightUpLeg_virtual
	{
		OFFSET 0.000000 0.000000 0.000000
		CHANNELS 3 Xrotation Yrotation Zrotation
		JOINT RightUpLeg
		{
			OFFSET -18.735201 -5.666702 -4.541200
			CHANNELS 3 Xrotation Yrotation Zrotation
			JOINT RightLeg
			{
				OFFSET 0.018946 -31.938133 0.493100
				CHANNELS 3 Xrotation Yrotation Zrotation
				JOINT RightFoot
				{
					OFFSET -0.018946 -31.938126 -4.336299
					CHANNELS 3 Xrotation Yrotation Zrotation
					JOINT RightToeBase
					{
						OFFSET -0.943001 -26.722004 15.023500
						CHANNELS 3 Xrotation Yrotation Zrotation
						End Site
						{
							OFFSET 0 0 0
						}
					}
				}
			}
		}
	}
	JOINT Hips_virtual
	{
		OFFSET 0.000000 0.000000 0.000000
		CHANNELS 3 Xrotation Yrotation Zrotation
		JOINT Hips
		{
			OFFSET -0.000000 -0.000000 -0.000000
			CHANNELS 3 Xrotation Yrotation Zrotation
			JOINT Spine
			{
				OFFSET 0.000000 10.199997 -0.299500
				CHANNELS 3 Xrotation Yrotation Zrotation
				JOINT Spine1
				{
					OFFSET 0.000000 11.900002 -1.516600
					CHANNELS 3 Xrotation Yrotation Zrotation
					JOINT Spine2
					{
						OFFSET 0.000000 13.600006 -2.842500
						CHANNELS 3 Xrotation Yrotation Zrotation
						JOINT Neck_virtual
						{
							OFFSET 0.000000 0.000000 0.000000
							CHANNELS 3 Xrotation Yrotation Zrotation
							JOINT Neck
							{
								OFFSET 0.000000 9.624100 -2.890100
								CHANNELS 3 Xrotation Yrotation Zrotation
								JOINT Head
								{
									OFFSET 0.000000 14.068802 -1.351900
									CHANNELS 3 Xrotation Yrotation Zrotation
									End Site
									{
										OFFSET 0 0 0
									}
								}
							}
						}
						JOINT LeftShoulder_virtual
						{
							OFFSET 0.000000 0.000000 0.000000
							CHANNELS 3 Xrotation Yrotation Zrotation
							JOINT LeftShoulder
							{
								OFFSET 15.263000 10.923401 -0.547700
								CHANNELS 3 Xrotation Yrotation Zrotation
								JOINT LeftArm
								{
									OFFSET 25.438599 -2.830597 -13.032500
									CHANNELS 3 Xrotation Yrotation Zrotation
									JOINT LeftForeArm
									{
										OFFSET 29.960503 0.000000 0.000000
										CHANNELS 3 Xrotation Yrotation Zrotation
										JOINT LeftHand
										{
											OFFSET 27.849251 0.000000 0.000000
											CHANNELS 3 Xrotation Yrotation Zrotation
											End Site
											{
												OFFSET 0 0 0
											}
										}
									}
								}
							}
						}
						JOINT RightShoulder_virtual
						{
							OFFSET 0.000000 0.000000 0.000000
							CHANNELS 3 Xrotation Yrotation Zrotation
							JOINT RightShoulder
							{
								OFFSET -15.263000 10.923401 -0.547700
								CHANNELS 3 Xrotation Yrotation Zrotation
								JOINT RightArm
								{
									OFFSET -25.438599 -2.830597 -13.032500
									CHANNELS 3 Xrotation Yrotation Zrotation
									JOINT RightForeArm
									{
										OFFSET -29.960503 0.000000 0.000000
										CHANNELS 3 Xrotation Yrotation Zrotation
										JOINT RightHand
										{
											OFFSET -27.849251 0.000000 0.000000
											CHANNELS 3 Xrotation Yrotation Zrotation
											End Site
											{
												OFFSET 0 0 0
											}
										}
									}
								}
							}
						}
					}
				}
			}
		}
	}
}
MOTION
Frames: 5
Frame Time: 0.03333333
-1.862957 93.193832 1.489103 0.000000 0.000000 0.000000 6.502037 -15.288269 -0.817909 -33.265023 7.490140 14.711046 33.262461 3.940451 -1.461677 -14.050639 4.807608 -4.957291 0.000000 0.000000 0.000000 10.411455 -12.151331 1.844436 -16.954852 -9.345913 -14.567962 29.926505 5.241336 -0.548604 -18.477484 1.334543 13.397108 0.000000 0.000000 0.000000 -0.768053 -17.815975 0.746870 6.172546 -7.116546 -1.011349 6.645903 -1.049017 0.691624 1.553030 -0.765634 0.185266 0.000000 0.000000 0.000000 -0.182369 2.182292 0.217610 -1.333463 2.267101 -0.473155 0.000000 0.000000 0.000000 1.051666 -0.792303 1.911479 0.192952 -5.941529 0.546043 -39.958707 -11.075744 -37.411726 -9.436855 -54.277587 -2.294596 0.000000 0.000000 0.000000 3.099601 -1.257527 1.343379 3.000809 5.436234 9.105987 12.406325 -0.180411 51.122060 7.063453 38.310811 0.481755 0.000000 0.000000 0.000000 
-0.996807 92.930664 1.586788 0.000000 0.000000 0.000000 6.435924 -16.046966 -0.633988 -33.361813 7.235353 14.827304 32.750655 3.905258 -1.690295 -14.469575 4.908365 -5.415745 0.000000 0.000000 0.000000 10.406755 -12.721489 1.943823 -16.946352 -9.536757 -14.499430 29.590316 5.302784 -0.768921 -18.927108 1.461190 12.963107 0.000000 0.000000 0.000000 -2.144749 -21.022690 0.057342 6.058744 -6.002113 -2.785985 6.291526 -1.322120 0.511133 1.318430 -0.521807 0.437200 0.000000 0.000000 0.000000 -0.144082 2.139270 0.104273 -1.230603 2.540005 -0.617808 0.000000 0.000000 0.000000 0.229062 -1.011471 1.923600 0.630876 -5.233868 0.005874 -42.038814 -12.290784 -38.910649 -10.236711 -55.544089 -3.849741 0.000000 0.000000 0.000000 2.572205 -1.127622 1.414361 2.885814 6.776173 9.054690 13.461596 -1.650724 50.498133 6.922931 38.768284 0.426197 0.000000 0.000000 0.000000 
-0.467965 93.045609 1.521152 0.000000 0.000000 0.000000 6.645191 -16.296888 -0.688811 -33.438137 7.307484 14.860449 32.703909 4.177504 -1.658074 -14.618376 5.186254 -5.259340 0.000000 0.000000 0.000000 10.680520 -12.460119 1.660183 -16.532849 -9.441091 -14.813538 29.545049 5.525436 -1.143835 -19.099466 1.888218 12.412812 0.000000 0.000000 0.000000 -0.362445 -20.645427 1.421869 3.082706 -2.480903 -3.508803 7.867644 -2.077589 0.008850 1.217750 -0.913646 0.777314 0.000000 0.000000 0.000000 0.239003 1.869458 0.425699 -1.208216 2.690969 -0.673035 0.000000 0.000000 0.000000 0.238090 -1.208304 2.073090 0.924809 -6.663304 -0.117378 -42.456207 -16.464297 -39.223843 -10.190506 -57.194949 -4.589812 0.000000 0.000000 0.000000 2.393325 -1.414593 1.704449 3.211067 5.561528 8.734515 15.371035 -3.635093 50.493372 6.795326 37.963667 0.159958 0.000000 0.000000 0.000000 
-0.739527 92.913452 1.566223 0.000000 0.000000 0.000000 6.993471 -16.382272 -0.820788 -33.450329 7.484379 14.892278 33.419740 3.902468 -1.622994 -14.076033 4.879624 -5.404800 0.000000 0.000000 0.000000 10.807424 -12.678394 1.799723 -16.391834 -9.537561 -14.686403 30.269298 5.460469 -1.308834 -18.550036 1.982549 12.121623 0.000000 0.000000 0.000000 -1.287969 -20.498854 0.522129 7.596997 -3.554442 -4.365470 6.814777 -1.894910 0.490192 1.386921 -0.369608 0.641650 0.000000 0.000000 0.000000 0.120193 2.012910 0.691780 -1.081409 2.719662 -0.667423 0.000000 0.000000 0.000000 0.328331 -1.066488 1.914323 0.561654 -4.321372 -0.169382 -43.262746 -14.766831 -37.041004 -9.997743 -55.964238 -4.502684 0.000000 0.000000 0.000000 2.208480 -0.841116 1.828525 3.096609 7.053513 9.532343 13.715162 -1.967697 50.340670 6.231961 40.552110 0.529630 0.000000 0.000000 0.000000 
-0.603696 93.382561 1.044327 0.000000 0.000000 0.000000 6.044320 -16.592012 -1.150177 -34.453960 7.303906 14.626182 33.349444 3.981305 -1.421181 -14.052603 4.869117 -5.073330 0.000000 0.000000 0.000000 10.239832 -12.589829 1.982061 -17.209913 -9.453532 -14.421010 30.049339 5.482493 -1.403699 -18.769447 2.043709 11.916054 0.000000 0.000000 0.000000 -0.216120 -19.341376 0.962505 5.161517 -1.500665 -3.638674 7.252022 -1.815227 -0.226196 0.795074 -0.491673 0.774445 0.000000 0.000000 0.000000 0.021668 1.728942 0.592449 -1.181373 2.938576 -0.812314 0.000000 0.000000 0.000000 0.539798 -1.354631 1.943698 0.651785 -3.864486 -1.058410 -43.834365 -15.872149 -36.303989 -9.649748 -55.117827 -4.722553 0.000000 0.000000 0.000000 1.794401 -0.976888 2.123590 3.570573 7.936925 9.155836 15.650817 -3.588248 50.108378 6.277451 42.407391 0.422023 0.000000 0.000000 0.000000 
